<svg id="Layer_1" xmlns="http://www.w3.org/2000/svg" xmlns:xlink="http://www.w3.org/1999/xlink" viewBox="10 -9 89 89"><style>.st0{fill:#D9D9D8;} .st1{clip-path:url(#SVGID_2_);fill:#F47B4E;} .st2{clip-path:url(#SVGID_2_);fill:none;} .st3{clip-path:url(#SVGID_2_);fill:#FFFFFF;} .st4{clip-path:url(#SVGID_2_);fill:#B3B3B2;}</style><ellipse id="XMLID_13_" class="st0" cx="54.5" cy="35.5" rx="44.5" ry="44.5"/><defs><circle id="SVGID_1_" cx="54.5" cy="35.5" r="44.5"/></defs><clipPath id="SVGID_2_"><use xlink:href="#SVGID_1_" overflow="visible"/></clipPath><path id="XMLID_6_" class="st1" d="M79.1 20.2V5.8c0-1.9-1.5-3.4-3.4-3.4h-3.4c-1.9 0-3.4 1.5-3.4 3.4v5.1L54.6-2.4 20.1 29.4h10.7v33.4c0 2.3 1.9 4.1 4.1 4.1H75c2.3 0 4.1-1.9 4.1-4.1V29.4h10l-10-9.2z"/><path id="XMLID_4_" class="st2" d="M29.2 15.3h51.3"/><path id="XMLID_2_" class="st3" d="M54.9 53.8c-8.5 0-12.4-5.2-12.4-10h2.6c0 5.1 5.1 7.4 9.8 7.4 2.6 0 5.2-.7 7-2 1.4-.9 3-2.6 3-5.4h2.6c-.1 6.6-6.4 10-12.6 10z"/><path class="st4" d="M89 29.4h-9.9v33.4c0 2.2-1.8 4.1-4.1 4.1H34.9c-.9 0-1.8-.3-2.5-.8l13.3 13.1c3 .5 5.8.9 8.9.9 23 .1 41.8-17.3 44.2-39.7 0-.6.1-1.3.1-1.9L89 29.4z"/></svg>